<svg xmlns="http://www.w3.org/2000/svg" xmlns:xlink="http://www.w3.org/1999/xlink" width="1920" zoomAndPan="magnify" viewBox="0 0 1440 809.999993" height="1080" preserveAspectRatio="xMidYMid meet" version="1.0"><defs><g/></defs><g fill="#ff7772" fill-opacity="0.302"><g transform="translate(62.489219, 466.09113)"><g><path d="M 0.765625 -104.765625 L 40.921875 -104.765625 L 41.6875 -103.984375 L 41.6875 -65.78125 L 48.53125 -65.78125 C 61.894531 -91.769531 68.90625 -104.765625 69.5625 -104.765625 L 103.640625 -104.765625 L 104.40625 -103.984375 L 104.40625 -89.109375 L 103.640625 -88.34375 L 94.84375 -88.34375 L 82.96875 -65.78125 L 87.578125 -44.765625 L 87.921875 -44.765625 L 87.578125 -44.34375 C 91.117188 -26 93.144531 -16.828125 93.65625 -16.828125 L 93.3125 -16.40625 L 103.984375 -16.40625 L 104.765625 -15.640625 L 104.765625 -0.765625 L 103.984375 0 L 63.484375 0 C 62.878906 0 61.34375 -6.238281 58.875 -18.71875 L 53.5 -41.28125 L 41.6875 -41.28125 L 42.046875 -8.796875 L 42.046875 -0.765625 L 41.28125 0 L 0.765625 0 L 0 -0.765625 L 0 -13.765625 L 0.765625 -14.53125 L 7.265625 -14.53125 L 7.265625 -90.578125 L 0.765625 -90.578125 L 0 -91.34375 L 0 -103.984375 Z M 0.765625 -104.765625 "/></g></g></g><g fill="#ff7772" fill-opacity="0.302"><g transform="translate(174.150339, 466.09113)"><g><path d="M 0.765625 -105.109375 L 104.34375 -105.109375 L 105.109375 -104.34375 L 105.109375 -91.28125 L 104.34375 -90.515625 L 97.84375 -90.515625 L 97.84375 -14.171875 L 104.34375 -14.171875 L 105.109375 -13.40625 L 105.109375 -0.765625 L 104.34375 0 L 0.765625 0 L 0 -0.765625 L 0 -13.40625 L 0.765625 -14.171875 L 7.265625 -14.171875 L 7.265625 -90.515625 L 0.765625 -90.515625 L 0 -91.28125 L 0 -104.34375 Z M 40.296875 -78.640625 L 40.296875 -26.46875 L 64.8125 -26.46875 L 64.8125 -78.640625 Z M 40.296875 -78.640625 "/></g></g></g><g fill="#ff7772" fill-opacity="0.302"><g transform="translate(285.392467, 466.09113)"><g><path d="M 0.765625 -118.171875 L 16 -118.171875 L 16.765625 -117.40625 L 16.765625 -104.484375 L 161.265625 -104.484375 L 162.03125 -103.71875 L 162.03125 -90.71875 L 161.265625 -89.953125 L 154.765625 -89.953125 L 154.765625 -14.109375 L 161.265625 -14.109375 L 162.03125 -13.34375 L 162.03125 -0.765625 L 161.265625 0 L 122.78125 0 L 122.015625 -0.765625 L 122.015625 -78.15625 L 97.5625 -78.15625 L 97.21875 -49.59375 L 97.21875 -14.109375 L 103.71875 -14.109375 L 104.484375 -13.34375 L 104.484375 -0.765625 L 103.71875 0 L 58.3125 0 L 57.546875 -0.765625 L 57.546875 -13.34375 L 58.3125 -14.109375 L 64.46875 -14.109375 L 64.46875 -78.15625 L 40.015625 -78.15625 L 39.671875 -49.59375 L 39.671875 -0.765625 L 38.90625 0 L 0.765625 0 L 0 -0.765625 L 0 -13.34375 L 0.765625 -14.109375 L 7.265625 -14.109375 L 7.265625 -78.5 L 0.765625 -78.5 L 0 -79.265625 L 0 -117.40625 Z M 0.765625 -118.171875 "/></g></g></g><g fill="#ff7772" fill-opacity="0.302"><g transform="translate(453.338076, 466.09113)"><g><path d="M 0.765625 -104.203125 L 103.4375 -104.203125 L 104.203125 -103.4375 L 104.203125 -56.640625 L 88.625 -41.0625 L 41.484375 -41.0625 L 41.828125 -8.734375 L 41.828125 -0.765625 L 41.0625 0 L 0.765625 0 L 0 -0.765625 L 0 -13.6875 L 0.765625 -14.453125 L 7.1875 -14.453125 L 7.1875 -90.15625 L 0.765625 -90.15625 L 0 -90.859375 L 0 -103.4375 Z M 41.484375 -78.703125 L 41.484375 -65.78125 L 62.71875 -65.78125 L 62.71875 -78.703125 Z M 41.484375 -78.703125 "/></g></g></g><g fill="#ff7772" fill-opacity="0.302"><g transform="translate(564.649991, 466.09113)"><g><path d="M 0.765625 -105.109375 L 104.34375 -105.109375 L 105.109375 -104.34375 L 105.109375 -91.703125 L 104.34375 -90.9375 L 97.84375 -90.9375 L 97.84375 -14.59375 L 104.34375 -14.59375 L 105.109375 -13.828125 L 105.109375 -0.765625 L 104.34375 0 L 63.6875 0 L 62.921875 -0.765625 L 62.921875 -8.796875 L 63.28125 -41.421875 L 51.40625 -41.421875 L 41.828125 0 L 0.765625 0 L 0 -0.765625 L 0 -15.71875 L 0.765625 -16.484375 L 11.109375 -16.484375 L 16.90625 -41.421875 C 15.457031 -41.421875 13.148438 -43.351562 9.984375 -47.21875 L 0 -57.125 L 0 -104.34375 Z M 41.828125 -79.40625 L 41.828125 -66.34375 L 63.28125 -66.34375 L 63.28125 -79.40625 Z M 41.828125 -79.40625 "/></g></g></g><g fill="#ff7772" fill-opacity="0.302"><g transform="translate(676.66027, 466.09113)"><g><path d="M 0.765625 -105.109375 L 104.34375 -105.109375 L 105.109375 -104.34375 L 105.109375 -91.28125 L 104.34375 -90.515625 L 97.84375 -90.515625 L 97.84375 -14.171875 L 104.34375 -14.171875 L 105.109375 -13.40625 L 105.109375 -0.765625 L 104.34375 0 L 0.765625 0 L 0 -0.765625 L 0 -13.40625 L 0.765625 -14.171875 L 7.265625 -14.171875 L 7.265625 -90.515625 L 0.765625 -90.515625 L 0 -91.28125 L 0 -104.34375 Z M 40.296875 -78.640625 L 40.296875 -26.46875 L 64.8125 -26.46875 L 64.8125 -78.640625 Z M 40.296875 -78.640625 "/></g></g></g><g fill="#ff7772" fill-opacity="0.302"><g transform="translate(787.902421, 466.09113)"><g><path d="M 0.765625 -118.171875 L 16 -118.171875 L 16.765625 -117.40625 L 16.765625 -104.484375 L 161.265625 -104.484375 L 162.03125 -103.71875 L 162.03125 -90.71875 L 161.265625 -89.953125 L 154.765625 -89.953125 L 154.765625 -14.109375 L 161.265625 -14.109375 L 162.03125 -13.34375 L 162.03125 -0.765625 L 161.265625 0 L 122.78125 0 L 122.015625 -0.765625 L 122.015625 -78.15625 L 97.5625 -78.15625 L 97.21875 -49.59375 L 97.21875 -14.109375 L 103.71875 -14.109375 L 104.484375 -13.34375 L 104.484375 -0.765625 L 103.71875 0 L 58.3125 0 L 57.546875 -0.765625 L 57.546875 -13.34375 L 58.3125 -14.109375 L 64.46875 -14.109375 L 64.46875 -78.15625 L 40.015625 -78.15625 L 39.671875 -49.59375 L 39.671875 -0.765625 L 38.90625 0 L 0.765625 0 L 0 -0.765625 L 0 -13.34375 L 0.765625 -14.109375 L 7.265625 -14.109375 L 7.265625 -78.5 L 0.765625 -78.5 L 0 -79.265625 L 0 -117.40625 Z M 0.765625 -118.171875 "/></g></g></g><g fill="#ff7772" fill-opacity="0.302"><g transform="translate(955.84803, 466.09113)"><g><path d="M 56.4375 -104.265625 L 102.9375 -104.265625 L 103.71875 -103.5 L 103.71875 -90.578125 L 102.9375 -89.8125 L 96.453125 -89.8125 L 96.453125 -20.046875 L 102.9375 -20.046875 L 103.71875 -19.28125 L 103.71875 18.78125 L 102.9375 19.5625 L 85.828125 19.5625 L 85.0625 18.78125 L 85.0625 0.0625 L 16.0625 0.0625 L 16.0625 18.78125 L 15.296875 19.5625 L 0.0625 19.5625 L -0.703125 18.78125 L -0.703125 -19.28125 L 0.0625 -20.046875 L 6.5625 -20.046875 L 6.5625 -31.84375 C 7.539062 -31.84375 11.21875 -37.054688 17.59375 -47.484375 L 54.203125 -101.203125 L 53.78125 -101.609375 L 53.78125 -102.734375 C 54.195312 -103.753906 55.082031 -104.265625 56.4375 -104.265625 Z M 42.390625 -35.6875 L 42.390625 -25.421875 L 59.921875 -25.421875 L 59.921875 -53.21875 L 55.734375 -53.21875 L 42.734375 -35.6875 Z M 42.390625 -35.6875 "/></g></g></g><g fill="#ff7772" fill-opacity="0.302"><g transform="translate(1067.509127, 466.09113)"><g><path d="M 0.765625 -104.765625 L 103.984375 -104.765625 L 104.765625 -103.984375 L 104.765625 -64.59375 L 103.984375 -63.828125 L 91 -63.828125 L 90.234375 -64.59375 L 90.234375 -71.09375 L 67.328125 -71.09375 L 67.328125 -13.765625 L 73.828125 -13.765625 L 74.59375 -12.984375 L 74.59375 -0.765625 L 73.828125 0 L 28.28125 0 L 27.515625 -0.765625 L 27.515625 -12.984375 L 28.28125 -13.765625 L 34.78125 -13.765625 L 34.78125 -71.09375 L 14.171875 -71.09375 L 14.171875 -64.59375 L 13.40625 -63.828125 L 0.765625 -63.828125 L 0 -64.59375 L 0 -103.984375 Z M 0.765625 -104.765625 "/></g></g></g><g fill="#ff7772" fill-opacity="0.302"><g transform="translate(1179.519406, 466.09113)"><g><path d="M 0.765625 -105.109375 L 104.34375 -105.109375 L 105.109375 -104.34375 L 105.109375 -91.28125 L 104.34375 -90.515625 L 97.84375 -90.515625 L 97.84375 -14.171875 L 104.34375 -14.171875 L 105.109375 -13.40625 L 105.109375 -0.765625 L 104.34375 0 L 0.765625 0 L 0 -0.765625 L 0 -13.40625 L 0.765625 -14.171875 L 7.265625 -14.171875 L 7.265625 -90.515625 L 0.765625 -90.515625 L 0 -91.28125 L 0 -104.34375 Z M 40.296875 -78.640625 L 40.296875 -26.46875 L 64.8125 -26.46875 L 64.8125 -78.640625 Z M 40.296875 -78.640625 "/></g></g></g><g fill="#ff7772" fill-opacity="0.302"><g transform="translate(1290.761557, 466.09113)"><g><path d="M 0.765625 -105.109375 L 104.34375 -105.109375 L 105.109375 -104.34375 L 105.109375 -91.703125 L 104.34375 -90.9375 L 97.84375 -90.9375 L 97.84375 -14.59375 L 104.34375 -14.59375 L 105.109375 -13.828125 L 105.109375 -0.765625 L 104.34375 0 L 63.6875 0 L 62.921875 -0.765625 L 62.921875 -8.796875 L 63.28125 -41.421875 L 51.40625 -41.421875 L 41.828125 0 L 0.765625 0 L 0 -0.765625 L 0 -15.71875 L 0.765625 -16.484375 L 11.109375 -16.484375 L 16.90625 -41.421875 C 15.457031 -41.421875 13.148438 -43.351562 9.984375 -47.21875 L 0 -57.125 L 0 -104.34375 Z M 41.828125 -79.40625 L 41.828125 -66.34375 L 63.28125 -66.34375 L 63.28125 -79.40625 Z M 41.828125 -79.40625 "/></g></g></g><g fill="#ff7772" fill-opacity="0.502"><g transform="translate(56.168115, 459.770006)"><g><path d="M 0.765625 -104.765625 L 40.921875 -104.765625 L 41.6875 -103.984375 L 41.6875 -65.78125 L 48.53125 -65.78125 C 61.894531 -91.769531 68.90625 -104.765625 69.5625 -104.765625 L 103.640625 -104.765625 L 104.40625 -103.984375 L 104.40625 -89.109375 L 103.640625 -88.34375 L 94.84375 -88.34375 L 82.96875 -65.78125 L 87.578125 -44.765625 L 87.921875 -44.765625 L 87.578125 -44.34375 C 91.117188 -26 93.144531 -16.828125 93.65625 -16.828125 L 93.3125 -16.40625 L 103.984375 -16.40625 L 104.765625 -15.640625 L 104.765625 -0.765625 L 103.984375 0 L 63.484375 0 C 62.878906 0 61.34375 -6.238281 58.875 -18.71875 L 53.5 -41.28125 L 41.6875 -41.28125 L 42.046875 -8.796875 L 42.046875 -0.765625 L 41.28125 0 L 0.765625 0 L 0 -0.765625 L 0 -13.765625 L 0.765625 -14.53125 L 7.265625 -14.53125 L 7.265625 -90.578125 L 0.765625 -90.578125 L 0 -91.34375 L 0 -103.984375 Z M 0.765625 -104.765625 "/></g></g></g><g fill="#ff7772" fill-opacity="0.502"><g transform="translate(167.829234, 459.770006)"><g><path d="M 0.765625 -105.109375 L 104.34375 -105.109375 L 105.109375 -104.34375 L 105.109375 -91.28125 L 104.34375 -90.515625 L 97.84375 -90.515625 L 97.84375 -14.171875 L 104.34375 -14.171875 L 105.109375 -13.40625 L 105.109375 -0.765625 L 104.34375 0 L 0.765625 0 L 0 -0.765625 L 0 -13.40625 L 0.765625 -14.171875 L 7.265625 -14.171875 L 7.265625 -90.515625 L 0.765625 -90.515625 L 0 -91.28125 L 0 -104.34375 Z M 40.296875 -78.640625 L 40.296875 -26.46875 L 64.8125 -26.46875 L 64.8125 -78.640625 Z M 40.296875 -78.640625 "/></g></g></g><g fill="#ff7772" fill-opacity="0.502"><g transform="translate(279.071362, 459.770006)"><g><path d="M 0.765625 -118.171875 L 16 -118.171875 L 16.765625 -117.40625 L 16.765625 -104.484375 L 161.265625 -104.484375 L 162.03125 -103.71875 L 162.03125 -90.71875 L 161.265625 -89.953125 L 154.765625 -89.953125 L 154.765625 -14.109375 L 161.265625 -14.109375 L 162.03125 -13.34375 L 162.03125 -0.765625 L 161.265625 0 L 122.78125 0 L 122.015625 -0.765625 L 122.015625 -78.15625 L 97.5625 -78.15625 L 97.21875 -49.59375 L 97.21875 -14.109375 L 103.71875 -14.109375 L 104.484375 -13.34375 L 104.484375 -0.765625 L 103.71875 0 L 58.3125 0 L 57.546875 -0.765625 L 57.546875 -13.34375 L 58.3125 -14.109375 L 64.46875 -14.109375 L 64.46875 -78.15625 L 40.015625 -78.15625 L 39.671875 -49.59375 L 39.671875 -0.765625 L 38.90625 0 L 0.765625 0 L 0 -0.765625 L 0 -13.34375 L 0.765625 -14.109375 L 7.265625 -14.109375 L 7.265625 -78.5 L 0.765625 -78.5 L 0 -79.265625 L 0 -117.40625 Z M 0.765625 -118.171875 "/></g></g></g><g fill="#ff7772" fill-opacity="0.502"><g transform="translate(447.016971, 459.770006)"><g><path d="M 0.765625 -104.203125 L 103.4375 -104.203125 L 104.203125 -103.4375 L 104.203125 -56.640625 L 88.625 -41.0625 L 41.484375 -41.0625 L 41.828125 -8.734375 L 41.828125 -0.765625 L 41.0625 0 L 0.765625 0 L 0 -0.765625 L 0 -13.6875 L 0.765625 -14.453125 L 7.1875 -14.453125 L 7.1875 -90.15625 L 0.765625 -90.15625 L 0 -90.859375 L 0 -103.4375 Z M 41.484375 -78.703125 L 41.484375 -65.78125 L 62.71875 -65.78125 L 62.71875 -78.703125 Z M 41.484375 -78.703125 "/></g></g></g><g fill="#ff7772" fill-opacity="0.502"><g transform="translate(558.328886, 459.770006)"><g><path d="M 0.765625 -105.109375 L 104.34375 -105.109375 L 105.109375 -104.34375 L 105.109375 -91.703125 L 104.34375 -90.9375 L 97.84375 -90.9375 L 97.84375 -14.59375 L 104.34375 -14.59375 L 105.109375 -13.828125 L 105.109375 -0.765625 L 104.34375 0 L 63.6875 0 L 62.921875 -0.765625 L 62.921875 -8.796875 L 63.28125 -41.421875 L 51.40625 -41.421875 L 41.828125 0 L 0.765625 0 L 0 -0.765625 L 0 -15.71875 L 0.765625 -16.484375 L 11.109375 -16.484375 L 16.90625 -41.421875 C 15.457031 -41.421875 13.148438 -43.351562 9.984375 -47.21875 L 0 -57.125 L 0 -104.34375 Z M 41.828125 -79.40625 L 41.828125 -66.34375 L 63.28125 -66.34375 L 63.28125 -79.40625 Z M 41.828125 -79.40625 "/></g></g></g><g fill="#ff7772" fill-opacity="0.502"><g transform="translate(670.339165, 459.770006)"><g><path d="M 0.765625 -105.109375 L 104.34375 -105.109375 L 105.109375 -104.34375 L 105.109375 -91.28125 L 104.34375 -90.515625 L 97.84375 -90.515625 L 97.84375 -14.171875 L 104.34375 -14.171875 L 105.109375 -13.40625 L 105.109375 -0.765625 L 104.34375 0 L 0.765625 0 L 0 -0.765625 L 0 -13.40625 L 0.765625 -14.171875 L 7.265625 -14.171875 L 7.265625 -90.515625 L 0.765625 -90.515625 L 0 -91.28125 L 0 -104.34375 Z M 40.296875 -78.640625 L 40.296875 -26.46875 L 64.8125 -26.46875 L 64.8125 -78.640625 Z M 40.296875 -78.640625 "/></g></g></g><g fill="#ff7772" fill-opacity="0.502"><g transform="translate(781.581317, 459.770006)"><g><path d="M 0.765625 -118.171875 L 16 -118.171875 L 16.765625 -117.40625 L 16.765625 -104.484375 L 161.265625 -104.484375 L 162.03125 -103.71875 L 162.03125 -90.71875 L 161.265625 -89.953125 L 154.765625 -89.953125 L 154.765625 -14.109375 L 161.265625 -14.109375 L 162.03125 -13.34375 L 162.03125 -0.765625 L 161.265625 0 L 122.78125 0 L 122.015625 -0.765625 L 122.015625 -78.15625 L 97.5625 -78.15625 L 97.21875 -49.59375 L 97.21875 -14.109375 L 103.71875 -14.109375 L 104.484375 -13.34375 L 104.484375 -0.765625 L 103.71875 0 L 58.3125 0 L 57.546875 -0.765625 L 57.546875 -13.34375 L 58.3125 -14.109375 L 64.46875 -14.109375 L 64.46875 -78.15625 L 40.015625 -78.15625 L 39.671875 -49.59375 L 39.671875 -0.765625 L 38.90625 0 L 0.765625 0 L 0 -0.765625 L 0 -13.34375 L 0.765625 -14.109375 L 7.265625 -14.109375 L 7.265625 -78.5 L 0.765625 -78.5 L 0 -79.265625 L 0 -117.40625 Z M 0.765625 -118.171875 "/></g></g></g><g fill="#ff7772" fill-opacity="0.502"><g transform="translate(949.526926, 459.770006)"><g><path d="M 56.4375 -104.265625 L 102.9375 -104.265625 L 103.71875 -103.5 L 103.71875 -90.578125 L 102.9375 -89.8125 L 96.453125 -89.8125 L 96.453125 -20.046875 L 102.9375 -20.046875 L 103.71875 -19.28125 L 103.71875 18.78125 L 102.9375 19.5625 L 85.828125 19.5625 L 85.0625 18.78125 L 85.0625 0.0625 L 16.0625 0.0625 L 16.0625 18.78125 L 15.296875 19.5625 L 0.0625 19.5625 L -0.703125 18.78125 L -0.703125 -19.28125 L 0.0625 -20.046875 L 6.5625 -20.046875 L 6.5625 -31.84375 C 7.539062 -31.84375 11.21875 -37.054688 17.59375 -47.484375 L 54.203125 -101.203125 L 53.78125 -101.609375 L 53.78125 -102.734375 C 54.195312 -103.753906 55.082031 -104.265625 56.4375 -104.265625 Z M 42.390625 -35.6875 L 42.390625 -25.421875 L 59.921875 -25.421875 L 59.921875 -53.21875 L 55.734375 -53.21875 L 42.734375 -35.6875 Z M 42.390625 -35.6875 "/></g></g></g><g fill="#ff7772" fill-opacity="0.502"><g transform="translate(1061.188023, 459.770006)"><g><path d="M 0.765625 -104.765625 L 103.984375 -104.765625 L 104.765625 -103.984375 L 104.765625 -64.59375 L 103.984375 -63.828125 L 91 -63.828125 L 90.234375 -64.59375 L 90.234375 -71.09375 L 67.328125 -71.09375 L 67.328125 -13.765625 L 73.828125 -13.765625 L 74.59375 -12.984375 L 74.59375 -0.765625 L 73.828125 0 L 28.28125 0 L 27.515625 -0.765625 L 27.515625 -12.984375 L 28.28125 -13.765625 L 34.78125 -13.765625 L 34.78125 -71.09375 L 14.171875 -71.09375 L 14.171875 -64.59375 L 13.40625 -63.828125 L 0.765625 -63.828125 L 0 -64.59375 L 0 -103.984375 Z M 0.765625 -104.765625 "/></g></g></g><g fill="#ff7772" fill-opacity="0.502"><g transform="translate(1173.198301, 459.770006)"><g><path d="M 0.765625 -105.109375 L 104.34375 -105.109375 L 105.109375 -104.34375 L 105.109375 -91.28125 L 104.34375 -90.515625 L 97.84375 -90.515625 L 97.84375 -14.171875 L 104.34375 -14.171875 L 105.109375 -13.40625 L 105.109375 -0.765625 L 104.34375 0 L 0.765625 0 L 0 -0.765625 L 0 -13.40625 L 0.765625 -14.171875 L 7.265625 -14.171875 L 7.265625 -90.515625 L 0.765625 -90.515625 L 0 -91.28125 L 0 -104.34375 Z M 40.296875 -78.640625 L 40.296875 -26.46875 L 64.8125 -26.46875 L 64.8125 -78.640625 Z M 40.296875 -78.640625 "/></g></g></g><g fill="#ff7772" fill-opacity="0.502"><g transform="translate(1284.440453, 459.770006)"><g><path d="M 0.765625 -105.109375 L 104.34375 -105.109375 L 105.109375 -104.34375 L 105.109375 -91.703125 L 104.34375 -90.9375 L 97.84375 -90.9375 L 97.84375 -14.59375 L 104.34375 -14.59375 L 105.109375 -13.828125 L 105.109375 -0.765625 L 104.34375 0 L 63.6875 0 L 62.921875 -0.765625 L 62.921875 -8.796875 L 63.28125 -41.421875 L 51.40625 -41.421875 L 41.828125 0 L 0.765625 0 L 0 -0.765625 L 0 -15.71875 L 0.765625 -16.484375 L 11.109375 -16.484375 L 16.90625 -41.421875 C 15.457031 -41.421875 13.148438 -43.351562 9.984375 -47.21875 L 0 -57.125 L 0 -104.34375 Z M 41.828125 -79.40625 L 41.828125 -66.34375 L 63.28125 -66.34375 L 63.28125 -79.40625 Z M 41.828125 -79.40625 "/></g></g></g><g fill="#c11b17" fill-opacity="1"><g transform="translate(49.847011, 453.448912)"><g><path d="M 0.765625 -104.765625 L 40.921875 -104.765625 L 41.6875 -103.984375 L 41.6875 -65.78125 L 48.53125 -65.78125 C 61.894531 -91.769531 68.90625 -104.765625 69.5625 -104.765625 L 103.640625 -104.765625 L 104.40625 -103.984375 L 104.40625 -89.109375 L 103.640625 -88.34375 L 94.84375 -88.34375 L 82.96875 -65.78125 L 87.578125 -44.765625 L 87.921875 -44.765625 L 87.578125 -44.34375 C 91.117188 -26 93.144531 -16.828125 93.65625 -16.828125 L 93.3125 -16.40625 L 103.984375 -16.40625 L 104.765625 -15.640625 L 104.765625 -0.765625 L 103.984375 0 L 63.484375 0 C 62.878906 0 61.34375 -6.238281 58.875 -18.71875 L 53.5 -41.28125 L 41.6875 -41.28125 L 42.046875 -8.796875 L 42.046875 -0.765625 L 41.28125 0 L 0.765625 0 L 0 -0.765625 L 0 -13.765625 L 0.765625 -14.53125 L 7.265625 -14.53125 L 7.265625 -90.578125 L 0.765625 -90.578125 L 0 -91.34375 L 0 -103.984375 Z M 0.765625 -104.765625 "/></g></g></g><g fill="#c11b17" fill-opacity="1"><g transform="translate(161.50813, 453.448912)"><g><path d="M 0.765625 -105.109375 L 104.34375 -105.109375 L 105.109375 -104.34375 L 105.109375 -91.28125 L 104.34375 -90.515625 L 97.84375 -90.515625 L 97.84375 -14.171875 L 104.34375 -14.171875 L 105.109375 -13.40625 L 105.109375 -0.765625 L 104.34375 0 L 0.765625 0 L 0 -0.765625 L 0 -13.40625 L 0.765625 -14.171875 L 7.265625 -14.171875 L 7.265625 -90.515625 L 0.765625 -90.515625 L 0 -91.28125 L 0 -104.34375 Z M 40.296875 -78.640625 L 40.296875 -26.46875 L 64.8125 -26.46875 L 64.8125 -78.640625 Z M 40.296875 -78.640625 "/></g></g></g><g fill="#c11b17" fill-opacity="1"><g transform="translate(272.750258, 453.448912)"><g><path d="M 0.765625 -118.171875 L 16 -118.171875 L 16.765625 -117.40625 L 16.765625 -104.484375 L 161.265625 -104.484375 L 162.03125 -103.71875 L 162.03125 -90.71875 L 161.265625 -89.953125 L 154.765625 -89.953125 L 154.765625 -14.109375 L 161.265625 -14.109375 L 162.03125 -13.34375 L 162.03125 -0.765625 L 161.265625 0 L 122.78125 0 L 122.015625 -0.765625 L 122.015625 -78.15625 L 97.5625 -78.15625 L 97.21875 -49.59375 L 97.21875 -14.109375 L 103.71875 -14.109375 L 104.484375 -13.34375 L 104.484375 -0.765625 L 103.71875 0 L 58.3125 0 L 57.546875 -0.765625 L 57.546875 -13.34375 L 58.3125 -14.109375 L 64.46875 -14.109375 L 64.46875 -78.15625 L 40.015625 -78.15625 L 39.671875 -49.59375 L 39.671875 -0.765625 L 38.90625 0 L 0.765625 0 L 0 -0.765625 L 0 -13.34375 L 0.765625 -14.109375 L 7.265625 -14.109375 L 7.265625 -78.5 L 0.765625 -78.5 L 0 -79.265625 L 0 -117.40625 Z M 0.765625 -118.171875 "/></g></g></g><g fill="#c11b17" fill-opacity="1"><g transform="translate(440.695867, 453.448912)"><g><path d="M 0.765625 -104.203125 L 103.4375 -104.203125 L 104.203125 -103.4375 L 104.203125 -56.640625 L 88.625 -41.0625 L 41.484375 -41.0625 L 41.828125 -8.734375 L 41.828125 -0.765625 L 41.0625 0 L 0.765625 0 L 0 -0.765625 L 0 -13.6875 L 0.765625 -14.453125 L 7.1875 -14.453125 L 7.1875 -90.15625 L 0.765625 -90.15625 L 0 -90.859375 L 0 -103.4375 Z M 41.484375 -78.703125 L 41.484375 -65.78125 L 62.71875 -65.78125 L 62.71875 -78.703125 Z M 41.484375 -78.703125 "/></g></g></g><g fill="#c11b17" fill-opacity="1"><g transform="translate(552.007782, 453.448912)"><g><path d="M 0.765625 -105.109375 L 104.34375 -105.109375 L 105.109375 -104.34375 L 105.109375 -91.703125 L 104.34375 -90.9375 L 97.84375 -90.9375 L 97.84375 -14.59375 L 104.34375 -14.59375 L 105.109375 -13.828125 L 105.109375 -0.765625 L 104.34375 0 L 63.6875 0 L 62.921875 -0.765625 L 62.921875 -8.796875 L 63.28125 -41.421875 L 51.40625 -41.421875 L 41.828125 0 L 0.765625 0 L 0 -0.765625 L 0 -15.71875 L 0.765625 -16.484375 L 11.109375 -16.484375 L 16.90625 -41.421875 C 15.457031 -41.421875 13.148438 -43.351562 9.984375 -47.21875 L 0 -57.125 L 0 -104.34375 Z M 41.828125 -79.40625 L 41.828125 -66.34375 L 63.28125 -66.34375 L 63.28125 -79.40625 Z M 41.828125 -79.40625 "/></g></g></g><g fill="#c11b17" fill-opacity="1"><g transform="translate(664.018061, 453.448912)"><g><path d="M 0.765625 -105.109375 L 104.34375 -105.109375 L 105.109375 -104.34375 L 105.109375 -91.28125 L 104.34375 -90.515625 L 97.84375 -90.515625 L 97.84375 -14.171875 L 104.34375 -14.171875 L 105.109375 -13.40625 L 105.109375 -0.765625 L 104.34375 0 L 0.765625 0 L 0 -0.765625 L 0 -13.40625 L 0.765625 -14.171875 L 7.265625 -14.171875 L 7.265625 -90.515625 L 0.765625 -90.515625 L 0 -91.28125 L 0 -104.34375 Z M 40.296875 -78.640625 L 40.296875 -26.46875 L 64.8125 -26.46875 L 64.8125 -78.640625 Z M 40.296875 -78.640625 "/></g></g></g><g fill="#c11b17" fill-opacity="1"><g transform="translate(775.260212, 453.448912)"><g><path d="M 0.765625 -118.171875 L 16 -118.171875 L 16.765625 -117.40625 L 16.765625 -104.484375 L 161.265625 -104.484375 L 162.03125 -103.71875 L 162.03125 -90.71875 L 161.265625 -89.953125 L 154.765625 -89.953125 L 154.765625 -14.109375 L 161.265625 -14.109375 L 162.03125 -13.34375 L 162.03125 -0.765625 L 161.265625 0 L 122.78125 0 L 122.015625 -0.765625 L 122.015625 -78.15625 L 97.5625 -78.15625 L 97.21875 -49.59375 L 97.21875 -14.109375 L 103.71875 -14.109375 L 104.484375 -13.34375 L 104.484375 -0.765625 L 103.71875 0 L 58.3125 0 L 57.546875 -0.765625 L 57.546875 -13.34375 L 58.3125 -14.109375 L 64.46875 -14.109375 L 64.46875 -78.15625 L 40.015625 -78.15625 L 39.671875 -49.59375 L 39.671875 -0.765625 L 38.90625 0 L 0.765625 0 L 0 -0.765625 L 0 -13.34375 L 0.765625 -14.109375 L 7.265625 -14.109375 L 7.265625 -78.5 L 0.765625 -78.5 L 0 -79.265625 L 0 -117.40625 Z M 0.765625 -118.171875 "/></g></g></g><g fill="#c11b17" fill-opacity="1"><g transform="translate(943.205821, 453.448912)"><g><path d="M 56.4375 -104.265625 L 102.9375 -104.265625 L 103.71875 -103.5 L 103.71875 -90.578125 L 102.9375 -89.8125 L 96.453125 -89.8125 L 96.453125 -20.046875 L 102.9375 -20.046875 L 103.71875 -19.28125 L 103.71875 18.78125 L 102.9375 19.5625 L 85.828125 19.5625 L 85.0625 18.78125 L 85.0625 0.0625 L 16.0625 0.0625 L 16.0625 18.78125 L 15.296875 19.5625 L 0.0625 19.5625 L -0.703125 18.78125 L -0.703125 -19.28125 L 0.0625 -20.046875 L 6.5625 -20.046875 L 6.5625 -31.84375 C 7.539062 -31.84375 11.21875 -37.054688 17.59375 -47.484375 L 54.203125 -101.203125 L 53.78125 -101.609375 L 53.78125 -102.734375 C 54.195312 -103.753906 55.082031 -104.265625 56.4375 -104.265625 Z M 42.390625 -35.6875 L 42.390625 -25.421875 L 59.921875 -25.421875 L 59.921875 -53.21875 L 55.734375 -53.21875 L 42.734375 -35.6875 Z M 42.390625 -35.6875 "/></g></g></g><g fill="#c11b17" fill-opacity="1"><g transform="translate(1054.866918, 453.448912)"><g><path d="M 0.765625 -104.765625 L 103.984375 -104.765625 L 104.765625 -103.984375 L 104.765625 -64.59375 L 103.984375 -63.828125 L 91 -63.828125 L 90.234375 -64.59375 L 90.234375 -71.09375 L 67.328125 -71.09375 L 67.328125 -13.765625 L 73.828125 -13.765625 L 74.59375 -12.984375 L 74.59375 -0.765625 L 73.828125 0 L 28.28125 0 L 27.515625 -0.765625 L 27.515625 -12.984375 L 28.28125 -13.765625 L 34.78125 -13.765625 L 34.78125 -71.09375 L 14.171875 -71.09375 L 14.171875 -64.59375 L 13.40625 -63.828125 L 0.765625 -63.828125 L 0 -64.59375 L 0 -103.984375 Z M 0.765625 -104.765625 "/></g></g></g><g fill="#c11b17" fill-opacity="1"><g transform="translate(1166.877197, 453.448912)"><g><path d="M 0.765625 -105.109375 L 104.34375 -105.109375 L 105.109375 -104.34375 L 105.109375 -91.28125 L 104.34375 -90.515625 L 97.84375 -90.515625 L 97.84375 -14.171875 L 104.34375 -14.171875 L 105.109375 -13.40625 L 105.109375 -0.765625 L 104.34375 0 L 0.765625 0 L 0 -0.765625 L 0 -13.40625 L 0.765625 -14.171875 L 7.265625 -14.171875 L 7.265625 -90.515625 L 0.765625 -90.515625 L 0 -91.28125 L 0 -104.34375 Z M 40.296875 -78.640625 L 40.296875 -26.46875 L 64.8125 -26.46875 L 64.8125 -78.640625 Z M 40.296875 -78.640625 "/></g></g></g><g fill="#c11b17" fill-opacity="1"><g transform="translate(1278.119348, 453.448912)"><g><path d="M 0.765625 -105.109375 L 104.34375 -105.109375 L 105.109375 -104.34375 L 105.109375 -91.703125 L 104.34375 -90.9375 L 97.84375 -90.9375 L 97.84375 -14.59375 L 104.34375 -14.59375 L 105.109375 -13.828125 L 105.109375 -0.765625 L 104.34375 0 L 63.6875 0 L 62.921875 -0.765625 L 62.921875 -8.796875 L 63.28125 -41.421875 L 51.40625 -41.421875 L 41.828125 0 L 0.765625 0 L 0 -0.765625 L 0 -15.71875 L 0.765625 -16.484375 L 11.109375 -16.484375 L 16.90625 -41.421875 C 15.457031 -41.421875 13.148438 -43.351562 9.984375 -47.21875 L 0 -57.125 L 0 -104.34375 Z M 41.828125 -79.40625 L 41.828125 -66.34375 L 63.28125 -66.34375 L 63.28125 -79.40625 Z M 41.828125 -79.40625 "/></g></g></g></svg>